<svg id="Layer_1" data-name="Layer 1" xmlns="http://www.w3.org/2000/svg" viewBox="0 0 128 128"><title>BILB</title><path d="M36.293,53.875a27.936,27.936,0,0,1,26.85-25.961c.289-.009.576-.013.864-.013A27.761,27.761,0,0,1,91.763,55.664,27.909,27.909,0,0,1,78.187,79.523a7.833,7.833,0,0,0-3.825,6.683v3.032a.086.086,0,0,1-.085.086h-2.99l4.2-23.706v-.005l1.364-7.7a2,2,0,1,0-3.938-.7L71.677,64.2c-1.616,1.256-3.29.536-6.637-1.38-2.612-1.5-5.976-3.408-9.346-2.179l-.607-3.422a2,2,0,1,0-3.938.7l1.135,6.4v0l4.432,25h-2.99a.086.086,0,0,1-.085-.086V86.205a7.764,7.764,0,0,0-3.778-6.653A27.71,27.71,0,0,1,36.293,53.875ZM75.135,93.324a2.021,2.021,0,0,1,0,4.041H52.865a2.021,2.021,0,0,1,0-4.041H75.135Zm2.021,10.062a2.023,2.023,0,0,1-2.021,2.021H52.865a2.021,2.021,0,0,1,0-4.042H75.135A2.023,2.023,0,0,1,77.156,103.386ZM60.777,89.324l-4.36-24.6c1.644-1.07,3.372-.306,6.635,1.563,2,1.145,4.447,2.547,6.981,2.546a6.581,6.581,0,0,0,.833-.059L67.223,89.324Zm4.058,30.106H63.166a3.984,3.984,0,0,1-3.442-1.982h8.554A3.984,3.984,0,0,1,64.834,119.431Zm10.3-5.982H52.865a2.021,2.021,0,1,1,0-4.041H75.135a2.021,2.021,0,1,1,0,4.041ZM66,16.858V6.569a2,2,0,1,0-4,0V16.858a2,2,0,1,0,4,0ZM27.242,63.438a2,2,0,0,0-2-2H14.953a2,2,0,0,0,0,4H25.242A2,2,0,0,0,27.242,63.438ZM32.291,33.5a2,2,0,0,0,0-2.828L25.016,23.4a2,2,0,0,0-2.828,2.828L29.463,33.5a2,2,0,0,0,2.828,0Zm82.756,29.937a2,2,0,0,0-2-2H102.758a2,2,0,0,0,0,4h10.289A2,2,0,0,0,115.047,63.438ZM98.537,33.5l7.275-7.275a2,2,0,0,0-2.828-2.828l-7.275,7.275A2,2,0,1,0,98.537,33.5Z"/></svg>