<svg xmlns="http://www.w3.org/2000/svg" viewBox="0 0 64 64"><title>user location</title><g id="user_location" data-name="user location"><path d="M33.06,30H30.94a8,8,0,0,0-7.86,6.78h0l.11.08.5.39.53.37c.28.19.57.37.86.53l.53.29.35.17.48.22a12.73,12.73,0,0,0,2.4.79,6.19,6.19,0,0,0,.62.13c.16,0,.32.06.49.09a14.08,14.08,0,0,0,4.1,0c.17,0,.33-.05.49-.09a6.19,6.19,0,0,0,.62-.13,12.73,12.73,0,0,0,2.4-.79l.48-.22.35-.17.53-.29c.29-.16.58-.34.86-.53l.53-.37.5-.39.11-.08h0A8,8,0,0,0,33.06,30Zm0,0H30.94a8,8,0,0,0-7.86,6.78h0l.11.08.5.39.53.37c.28.19.57.37.86.53l.53.29.35.17.48.22a12.73,12.73,0,0,0,2.4.79,6.19,6.19,0,0,0,.62.13c.16,0,.32.06.49.09a14.08,14.08,0,0,0,4.1,0c.17,0,.33-.05.49-.09a6.19,6.19,0,0,0,.62-.13,12.73,12.73,0,0,0,2.4-.79l.48-.22.35-.17.53-.29c.29-.16.58-.34.86-.53l.53-.37.5-.39.11-.08h0A8,8,0,0,0,33.06,30Zm2.37-11.59A4.35,4.35,0,0,0,32.2,17h-.33a4.35,4.35,0,0,0-3.23,1.41,4.3,4.3,0,0,0-1.16,3.32l.17,2.2A4.38,4.38,0,0,0,32,28a4.43,4.43,0,0,0,4.41-4.07l.17-2.2A4.3,4.3,0,0,0,35.43,18.41ZM33.06,30H30.94a8,8,0,0,0-7.86,6.78h0l.11.08.5.39.53.37c.28.19.57.37.86.53l.53.29.35.17.48.22a12.73,12.73,0,0,0,2.4.79,6.19,6.19,0,0,0,.62.13c.16,0,.32.06.49.09a14.08,14.08,0,0,0,4.1,0c.17,0,.33-.05.49-.09a6.19,6.19,0,0,0,.62-.13,12.73,12.73,0,0,0,2.4-.79l.48-.22.35-.17.53-.29c.29-.16.58-.34.86-.53l.53-.37.5-.39.11-.08h0A8,8,0,0,0,33.06,30Zm2.37-11.59A4.35,4.35,0,0,0,32.2,17h-.33a4.35,4.35,0,0,0-3.23,1.41,4.3,4.3,0,0,0-1.16,3.32l.17,2.2A4.38,4.38,0,0,0,32,28a4.43,4.43,0,0,0,4.41-4.07l.17-2.2A4.3,4.3,0,0,0,35.43,18.41Zm0,0A4.35,4.35,0,0,0,32.2,17h-.33a4.35,4.35,0,0,0-3.23,1.41,4.3,4.3,0,0,0-1.16,3.32l.17,2.2A4.38,4.38,0,0,0,32,28a4.43,4.43,0,0,0,4.41-4.07l.17-2.2A4.3,4.3,0,0,0,35.43,18.41ZM33.06,30H30.94a8,8,0,0,0-7.86,6.78h0l.11.08.5.39.53.37c.28.19.57.37.86.53l.53.29.35.17.48.22a12.73,12.73,0,0,0,2.4.79,6.19,6.19,0,0,0,.62.13c.16,0,.32.06.49.09a14.08,14.08,0,0,0,4.1,0c.17,0,.33-.05.49-.09a6.19,6.19,0,0,0,.62-.13,12.73,12.73,0,0,0,2.4-.79l.48-.22.35-.17.53-.29c.29-.16.58-.34.86-.53l.53-.37.5-.39.11-.08h0A8,8,0,0,0,33.06,30Zm0,0H30.94a8,8,0,0,0-7.86,6.78h0l.11.08.5.39.53.37c.28.19.57.37.86.53l.53.29.35.17.48.22a12.73,12.73,0,0,0,2.4.79,6.19,6.19,0,0,0,.62.13c.16,0,.32.06.49.09a14.08,14.08,0,0,0,4.1,0c.17,0,.33-.05.49-.09a6.19,6.19,0,0,0,.62-.13,12.73,12.73,0,0,0,2.4-.79l.48-.22.35-.17.53-.29c.29-.16.58-.34.86-.53l.53-.37.5-.39.11-.08h0A8,8,0,0,0,33.06,30ZM32,28a4.43,4.43,0,0,0,4.41-4.07l.17-2.2a4.3,4.3,0,0,0-1.16-3.32A4.35,4.35,0,0,0,32.2,17h-.33a4.35,4.35,0,0,0-3.23,1.41,4.3,4.3,0,0,0-1.16,3.32l.17,2.2A4.38,4.38,0,0,0,32,28ZM32,5A21,21,0,0,0,11,26c0,17,21,33,21,33S53,43,53,26A21,21,0,0,0,32,5ZM42.63,38A16,16,0,1,1,48,26,16,16,0,0,1,42.63,38Zm-9.57-8H30.94a8,8,0,0,0-7.86,6.78h0l.11.08.5.39.53.37c.28.19.57.37.86.53l.53.29.35.17.48.22a12.73,12.73,0,0,0,2.4.79,6.19,6.19,0,0,0,.62.13c.16,0,.32.06.49.09a14.08,14.08,0,0,0,4.1,0c.17,0,.33-.05.49-.09a6.19,6.19,0,0,0,.62-.13,12.73,12.73,0,0,0,2.4-.79l.48-.22.35-.17.53-.29c.29-.16.58-.34.86-.53l.53-.37.5-.39.11-.08h0A8,8,0,0,0,33.06,30ZM32,28a4.43,4.43,0,0,0,4.41-4.07l.17-2.2a4.3,4.3,0,0,0-1.16-3.32A4.35,4.35,0,0,0,32.2,17h-.33a4.35,4.35,0,0,0-3.23,1.41,4.3,4.3,0,0,0-1.16,3.32l.17,2.2A4.38,4.38,0,0,0,32,28Zm3.42-9.59A4.35,4.35,0,0,0,32.2,17h-.33a4.35,4.35,0,0,0-3.23,1.41,4.3,4.3,0,0,0-1.16,3.32l.17,2.2A4.38,4.38,0,0,0,32,28a4.43,4.43,0,0,0,4.41-4.07l.17-2.2A4.3,4.3,0,0,0,35.43,18.41ZM33.06,30H30.94a8,8,0,0,0-7.86,6.78h0l.11.08.5.39.53.37c.28.19.57.37.86.53l.53.29.35.17.48.22a12.73,12.73,0,0,0,2.4.79,6.19,6.19,0,0,0,.62.13c.16,0,.32.06.49.09a14.08,14.08,0,0,0,4.1,0c.17,0,.33-.05.49-.09a6.19,6.19,0,0,0,.62-.13,12.73,12.73,0,0,0,2.4-.79l.48-.22.35-.17.53-.29c.29-.16.58-.34.86-.53l.53-.37.5-.39.11-.08h0A8,8,0,0,0,33.06,30Zm0,0H30.94a8,8,0,0,0-7.86,6.78h0l.11.08.5.39.53.37c.28.19.57.37.86.53l.53.29.35.17.48.22a12.73,12.73,0,0,0,2.4.79,6.19,6.19,0,0,0,.62.13c.16,0,.32.06.49.09a14.08,14.08,0,0,0,4.1,0c.17,0,.33-.05.49-.09a6.19,6.19,0,0,0,.62-.13,12.73,12.73,0,0,0,2.4-.79l.48-.22.35-.17.53-.29c.29-.16.58-.34.86-.53l.53-.37.5-.39.11-.08h0A8,8,0,0,0,33.06,30Zm2.37-11.59A4.35,4.35,0,0,0,32.2,17h-.33a4.35,4.35,0,0,0-3.23,1.41,4.3,4.3,0,0,0-1.16,3.32l.17,2.2A4.38,4.38,0,0,0,32,28a4.43,4.43,0,0,0,4.41-4.07l.17-2.2A4.3,4.3,0,0,0,35.43,18.41ZM33.06,30H30.94a8,8,0,0,0-7.86,6.78h0l.11.08.5.39.53.37c.28.19.57.37.86.53l.53.29.35.17.48.22a12.73,12.73,0,0,0,2.4.79,6.19,6.19,0,0,0,.62.13c.16,0,.32.06.49.09a14.08,14.08,0,0,0,4.1,0c.17,0,.33-.05.49-.09a6.19,6.19,0,0,0,.62-.13,12.73,12.73,0,0,0,2.4-.79l.48-.22.35-.17.53-.29c.29-.16.58-.34.86-.53l.53-.37.5-.39.11-.08h0A8,8,0,0,0,33.06,30Zm2.37-11.59A4.35,4.35,0,0,0,32.2,17h-.33a4.35,4.35,0,0,0-3.23,1.41,4.3,4.3,0,0,0-1.16,3.32l.17,2.2A4.38,4.38,0,0,0,32,28a4.43,4.43,0,0,0,4.41-4.07l.17-2.2A4.3,4.3,0,0,0,35.43,18.41ZM33.06,30H30.94a8,8,0,0,0-7.86,6.78h0l.11.08.5.39.53.37c.28.19.57.37.86.53l.53.29.35.17.48.22a12.73,12.73,0,0,0,2.4.79,6.19,6.19,0,0,0,.62.13c.16,0,.32.06.49.09a14.08,14.08,0,0,0,4.1,0c.17,0,.33-.05.49-.09a6.19,6.19,0,0,0,.62-.13,12.73,12.73,0,0,0,2.4-.79l.48-.22.35-.17.53-.29c.29-.16.58-.34.86-.53l.53-.37.5-.39.11-.08h0A8,8,0,0,0,33.06,30Zm2.37-11.59A4.35,4.35,0,0,0,32.2,17h-.33a4.35,4.35,0,0,0-3.23,1.41,4.3,4.3,0,0,0-1.16,3.32l.17,2.2A4.38,4.38,0,0,0,32,28a4.43,4.43,0,0,0,4.41-4.07l.17-2.2A4.3,4.3,0,0,0,35.43,18.41ZM33.06,30H30.94a8,8,0,0,0-7.86,6.78h0l.11.08.5.39.53.37c.28.19.57.37.86.53l.53.29.35.17.48.22a12.73,12.73,0,0,0,2.4.79,6.19,6.19,0,0,0,.62.13c.16,0,.32.06.49.09a14.08,14.08,0,0,0,4.1,0c.17,0,.33-.05.49-.09a6.19,6.19,0,0,0,.62-.13,12.73,12.73,0,0,0,2.4-.79l.48-.22.35-.17.53-.29c.29-.16.58-.34.86-.53l.53-.37.5-.39.11-.08h0A8,8,0,0,0,33.06,30Z"/><path d="M40.81,36.87l.11-.08h0Zm-17.73-.09h0l.11.08Z"/></g></svg>